ffmpeg version 3.4.8-0ubuntu0.2 Copyright (c) 2000-2020 the FFmpeg developers
  built with gcc 7 (Ubuntu 7.5.0-3ubuntu1~18.04)
  configuration: --prefix=/usr --extra-version=0ubuntu0.2 --toolchain=hardened --libdir=/usr/lib/x86_64-linux-gnu --incdir=/usr/include/x86_64-linux-gnu --enable-gpl --disable-stripping --enable-avresample --enable-avisynth --enable-gnutls --enable-ladspa --enable-libass --enable-libbluray --enable-libbs2b --enable-libcaca --enable-libcdio --enable-libflite --enable-libfontconfig --enable-libfreetype --enable-libfribidi --enable-libgme --enable-libgsm --enable-libmp3lame --enable-libmysofa --enable-libopenjpeg --enable-libopenmpt --enable-libopus --enable-libpulse --enable-librubberband --enable-librsvg --enable-libshine --enable-libsnappy --enable-libsoxr --enable-libspeex --enable-libssh --enable-libtheora --enable-libtwolame --enable-libvorbis --enable-libvpx --enable-libwavpack --enable-libwebp --enable-libx265 --enable-libxml2 --enable-libxvid --enable-libzmq --enable-libzvbi --enable-omx --enable-openal --enable-opengl --enable-sdl2 --enable-libdc1394 --enable-libdrm --enable-libiec61883 --enable-chromaprint --enable-frei0r --enable-libopencv --enable-libx264 --enable-shared
  libavutil      55. 78.100 / 55. 78.100
  libavcodec     57.107.100 / 57.107.100
  libavformat    57. 83.100 / 57. 83.100
  libavdevice    57. 10.100 / 57. 10.100
  libavfilter     6.107.100 /  6.107.100
  libavresample   3.  7.  0 /  3.  7.  0
  libswscale      4.  8.100 /  4.  8.100
  libswresample   2.  9.100 /  2.  9.100
  libpostproc    54.  7.100 / 54.  7.100
[rawvideo @ 0x56364e376a20] Estimating duration from bitrate, this may be inaccurate
Input #0, rawvideo, from '../../SVC-Encoder-20220109T061506Z-001/SVC-Encoder/Dataset/RollerCoaster/6f_2x2/tile_yuv/f4_t2_480x480.yuv':
  Duration: 00:00:10.00, start: 0.000000, bitrate: 82944 kb/s
    Stream #0:0: Video: rawvideo (I420 / 0x30323449), yuv420p, 480x480, 82944 kb/s, 30 tbr, 30 tbn, 30 tbc
Stream mapping:
  Stream #0:0 -> #0:0 (rawvideo (native) -> h264 (libx264))
Press [q] to stop, [?] for help
[libx264 @ 0x56364e383c60] using cpu capabilities: MMX2 SSE2Fast LZCNT SSSE3 SSE4.2 AVX
[libx264 @ 0x56364e383c60] profile High, level 3.0
Output #0, rawvideo, to 'RollerCoaster_f4_t2_480x480_x264_QP_36.h264':
  Metadata:
    encoder         : Lavf57.83.100
    Stream #0:0: Video: h264 (libx264), yuv420p, 480x480, q=-1--1, 30 fps, 30 tbn, 30 tbc
    Metadata:
      encoder         : Lavc57.107.100 libx264
    Side data:
      cpb: bitrate max/min/avg: 0/0/0 buffer size: 0 vbv_delay: -1
frame=  137 fps=0.0 q=42.0 PSNR=Y:nan U:nan V:nan *:nan size=      55kB time=00:00:03.13 bitrate= 144.0kbits/s speed=6.23x    frame=  240 fps=239 q=42.0 PSNR=Y:nan U:nan V:nan *:nan size=     108kB time=00:00:06.56 bitrate= 135.0kbits/s speed=6.53x    frame=  300 fps=211 q=42.0 LPSNR=Y:inf U:inf V:inf *:inf size=     163kB time=00:00:09.93 bitrate= 134.4kbits/s speed=6.99x    
video:163kB audio:0kB subtitle:0kB other streams:0kB global headers:0kB muxing overhead: 0.000000%
[libx264 @ 0x56364e383c60] frame I:2     Avg QP:34.29  size: 11988  PSNR Mean Y:33.83 U:42.08 V:43.99 Avg:35.33 Global:35.28
[libx264 @ 0x56364e383c60] frame P:76    Avg QP:36.04  size:  1382  PSNR Mean Y:32.04 U:41.99 V:43.46 Avg:33.62 Global:33.59
[libx264 @ 0x56364e383c60] frame B:222   Avg QP:41.53  size:   171  PSNR Mean Y:31.95 U:41.94 V:43.45 Avg:33.53 Global:33.51
[libx264 @ 0x56364e383c60] consecutive B-frames:  1.3%  0.0%  0.0% 98.7%
[libx264 @ 0x56364e383c60] mb I  I16..4: 24.4% 62.6% 13.0%
[libx264 @ 0x56364e383c60] mb P  I16..4:  0.4%  0.2%  0.0%  P16..4: 36.5%  8.0%  2.1%  0.0%  0.0%    skip:52.8%
[libx264 @ 0x56364e383c60] mb B  I16..4:  0.0%  0.0%  0.0%  B16..8: 16.2%  0.1%  0.0%  direct: 0.0%  skip:83.8%  L0:24.0% L1:76.0% BI: 0.0%
[libx264 @ 0x56364e383c60] 8x8 transform intra:57.9% inter:74.2%
[libx264 @ 0x56364e383c60] coded y,uvDC,uvAC intra: 54.8% 53.7% 5.2% inter: 2.6% 1.2% 0.0%
[libx264 @ 0x56364e383c60] i16 v,h,dc,p: 21% 33% 25% 20%
[libx264 @ 0x56364e383c60] i8 v,h,dc,ddl,ddr,vr,hd,vl,hu:  6% 13% 27%  7%  7%  4% 11% 18%  7%
[libx264 @ 0x56364e383c60] i4 v,h,dc,ddl,ddr,vr,hd,vl,hu:  7% 14% 17%  9% 11%  5% 19% 13%  5%
[libx264 @ 0x56364e383c60] i8c dc,h,v,p: 59% 20% 13%  8%
[libx264 @ 0x56364e383c60] Weighted P-Frames: Y:1.3% UV:0.0%
[libx264 @ 0x56364e383c60] ref P L0: 66.3% 15.6% 15.1%  2.9%  0.0%
[libx264 @ 0x56364e383c60] ref B L0: 93.1%  6.7%  0.3%
[libx264 @ 0x56364e383c60] ref B L1: 87.6% 12.4%
[libx264 @ 0x56364e383c60] PSNR Mean Y:31.986 U:41.955 V:43.456 Avg:33.564 Global:33.542 kb/s:133.52
